pedal_clip_forces_x_-0.11_y_-0.06.mot
version=1
nRows=189
nColumns=4
inDegrees=yes
endheader
time	PedalClip_calcn_r_Fx	PedalClip_calcn_r_Fy	PedalClip_calcn_r_Fz
0	9.26140324100527	11.7918347837963	0
0.00107264	9.09812049685769	11.9923212673764	0
0.00549146	8.93440436278407	12.1899385242925	0
0.00991028	8.77025281692187	12.3847052347405	0
0.01432909	8.60566376670191	12.5766409034758	0
0.01722005	8.44063548599938	12.7657659075781	0
0.02099263	8.27516662910359	12.9521015476652	0
0.02404905	8.10925624576127	13.1356701028396	0
0.02815829	7.94290395832803	13.3164948896772	0
0.03029721	7.77611042186274	13.4946014312153	0
0.0332	7.60887700822725	13.6700211784367	0
0.03619549	7.4412064817154	13.8427901902255	0
0.03870421	7.27310273716449	14.0129492998853	0
0.04151458	7.1045696014977	14.1805431942433	0
0.04314766	6.93561132933867	14.3456168767742	0
0.04563378	6.76623179012528	14.5082162549707	0
0.04707831	6.59643475321731	14.6683859768735	0
0.04921227	6.42622434020843	14.8261686226263	0
0.05075615	6.25560473894464	14.981604648631	0
0.0528535	6.08458029729825	15.1347325001659	0
0.05395702	5.91315536971585	15.2855885802408	0
0.05506053	5.74133456233882	15.4342074968993	0
0.05551136	5.56912221008133	15.5806217933773	0
0.05695536	5.3965225299683	15.7248617129874	0
0.05806829	5.22353960743055	15.8669550316215	0
0.05960116	5.05017739423834	16.0069269080603	0
0.06067127	4.87643946811791	16.1447996103324	0
0.062085	4.70232920908483	16.2805922856069	0
0.06301096	4.52784954774121	16.4143206543322	0
0.06393693	4.35300317481218	16.5459967440055	0
0.06439991	4.17779194563283	16.6756288197914	0
0.0655573	4.00221703445958	16.8032205014865	0
0.06645298	3.82627889559747	16.9287700331554	0
0.06753214	3.64997710208016	17.0522698319646	0
0.06825651	3.47330955320784	17.1737065617491	0
0.06939998	3.29627279249029	17.2930596467846	0
0.07088662	3.11886178673604	17.4103002671862	0
0.07165526	2.94106921326006	17.5253909387499	0
0.0724239	2.76288596386124	17.6382843030358	0
0.07366394	2.58430003864433	17.7489246863215	0
0.07444235	2.40529620453653	17.8572451121079	0
0.07453128	2.22585644137356	17.963163876402	0
0.07476829	2.04595893053383	18.0665849939512	0
0.07540961	1.86557710865937	18.1673979782579	0
0.07576602	1.68467889245249	18.2654754940701	0
0.07623748	1.50322760530779	18.3606689035382	0
0.07758645	1.32118477885082	18.4528061285949	0
0.07824655	1.13851615199495	18.5416958955173	0
0.07890665	0.955203500295087	18.6271485608402	0
0.07947205	0.771261847350312	18.7090381694638	0
0.07996419	0.5862039059444	18.7923619108146	0
0.08083378	0.40077002430503	18.8748235877013	0
0.08170337	0.215030762105278	18.9566629834003	0
0.08212825	0.0290705101522672	19.038227197624	0
0.08268215	-0.157042600488198	19.1199358343541	0
0.08336471	-0.343270561556435	19.2022327002591	0
0.08404727	-0.529577565129694	19.2855260720181	0
0.08441153	-0.715920766819146	19.3701349765582	0
0.08489587	-0.902239979720495	19.456218442052	0
0.08557535	-1.08845038204564	19.5437673858269	0
0.08625483	-1.27448083174118	19.6327004254853	0
0.08657626	-1.46028341767648	19.7228377685044	0
0.08700696	-1.64583265646035	19.8139734186257	0
0.08768536	-1.83111645073149	19.9058901512011	0
0.08836376	-2.01610141212381	19.9983464512659	0
0.08866578	-2.20075634769536	20.0911784367694	0
0.08906627	-2.38504908854685	20.1843183858564	0
0.08972362	-2.56895986931606	20.2777320217663	0
0.09038097	-2.75248511901341	20.3713807267826	0
0.09072349	-2.93560388194313	20.4651934630157	0
0.09112079	-3.11827036779905	20.5590758740854	0
0.0917215	-3.30039422077092	20.6529279437323	0
0.09232221	-3.48188830475739	20.7467214069712	0
0.09267902	-3.66268615032941	20.8404736798938	0
0.09306168	-3.84272613827654	20.9341942961796	0
0.09363062	-4.02191885799163	21.0278555598457	0
0.09419957	-4.20016807786286	21.1214148403291	0
0.09458255	-4.37737453559702	21.2148340907511	0
0.09496257	-4.55345394484607	21.3080956373566	0
0.09549442	-4.72835560836981	21.4012396602737	0
0.09602627	-4.90209992255957	21.4943762805579	0
0.09649841	-5.07474165880524	21.5876376785337	0
0.09707438	-5.24632051539921	21.6811232876099	0
0.09765034	-5.41685318224807	21.7748935101028	0
0.09796492	-5.58637894121258	21.8690204023059	0
0.09831773	-5.75496240568483	21.9636083698432	0
0.09880917	-5.92267924020157	22.0587666666	0
0.09930061	-6.08960433440222	22.1545799049558	0
0.09979205	-6.25576405495387	22.2510580471913	0
0.09991322	-6.42117560910134	22.3482087937554	0
0.10028164	-6.58586712462366	22.4460648554147	0
0.10074074	-6.74986169364083	22.544639397071	0
0.10119983	-6.91317365881112	22.6439178711596	0
0.10124574	-7.07579109848341	22.7438634154583	0
0.10140102	-7.23769168311694	22.8444384630419	0
0.10165631	-7.39885920718398	22.945613305853	0
0.1020241	-7.55931652642324	23.047399151286	0
0.102208	-7.71912458727505	23.1498318077579	0
0.10276108	-7.8783448448056	23.2529243525713	0
0.10334877	-8.03701481495073	23.3566695608926	0
0.10386035	-8.19515780641447	23.4610339379974	0
0.10437193	-8.35278659443868	23.5659541628977	0
0.10442309	-8.5099346219839	23.6713931697957	0
0.10458236	-8.66667535304279	23.7773919917818	0
0.10491223	-8.82309690875508	23.8840130963681	0
0.10504012	-8.97925589643206	23.9912648980807	0
0.1053376	-9.1351762161047	24.0990975563906	0
0.10578208	-9.29087758111416	24.2074698675088	0
0.10612294	-9.44638661872304	24.3163808721168	0
0.10621216	-9.6017429808874	24.4258628953038	0
0.10634531	-9.75699446386388	24.5359409639073	0
0.10689014	-9.91217328669199	24.6466304722061	0
0.10710882	-10.0672961846008	24.7579185350039	0
0.10740206	-10.2223658350136	24.8697578160768	0
0.10780653	-10.377381352391	24.9821111455565	0
0.10793927	-10.532351326646	25.0950099824779	0
0.10816461	-10.6873049748655	25.2085038348043	0
0.10851004	-10.842264531769	25.3225891063757	0
0.10868276	-10.9972370197851	25.4372039594966	0
0.10930903	-11.1522030361615	25.5522920160571	0
0.10973661	-11.3071373658517	25.6678322363672	0
0.10983861	-11.4620278450517	25.7838261428926	0
0.11006741	-11.6168783126886	25.900262251216	0
0.11066119	-11.7716755077055	26.0171205568371	0
0.11076672	-11.926392015531	26.1343518716519	0
0.11101322	-12.0809761000762	26.2518634427727	0
0.11141468	-12.23535820287	26.3695648972623	0
0.1117585	-12.3894810409296	26.4874402899452	0
0.11183757	-12.5433195919416	26.6054905077205	0
0.11196696	-12.6968384034641	26.7236602362977	0
0.11246721	-12.8499784461277	26.8418371691539	0
0.11265469	-13.0026758053765	26.9599299457197	0
0.11291401	-13.1548789094832	27.0778899000983	0
0.11328676	-13.3065541861408	27.1957031873906	0
0.11336862	-13.4577167260145	27.3134070902542	0
0.11352391	-13.6083694077738	27.4310107366503	0
0.11407365	-13.7584773414743	27.5484619911388	0
0.11424038	-13.9079758309408	27.6656669615518	0
0.11477085	-14.0568373204016	27.7826114145373	0
0.1148239	-14.2050918319134	27.8993699033691	0
0.11496173	-14.3527789139855	28.0160111072998	0
0.11533405	-14.4998903351788	28.132524353934	0
0.11547579	-14.6463611219772	28.2488101123028	0
0.11573725	-14.7921129448881	28.3647598965134	0
0.11608941	-14.9370948237159	28.4803182519278	0
0.11615827	-15.0813005091022	28.5955233222883	0
0.11628641	-15.2247736984867	28.7104809037512	0
0.11674312	-15.3675635755801	28.8252946247914	0
0.11689653	-15.5096991929991	28.9400320651706	0
0.11713295	-15.6511947782161	29.0547259021127	0
0.11748441	-15.7920695361083	29.1694029207999	0
0.11754285	-15.9323383076182	29.2840755246941	0
0.11767158	-16.0720247282512	29.3987615171004	0
0.118068	-16.2111297770709	29.5134599146512	0
0.11820092	-16.3496501374958	29.6281756536573	0
0.11844682	-16.4876015290434	29.7429292996787	0
0.1187898	-16.6250332427525	29.857764714467	0
0.11884436	-16.7620110767087	29.9727294947294	0
0.11897118	-16.8985901432219	30.087831548957	0
0.11934112	-17.0347860574237	30.2030423174665	0
0.11946861	-17.1705809428198	30.3182953921088	0
0.11971422	-17.3059572263374	30.4335398340533	0
0.12005691	-17.4409537337152	30.5487969673727	0
0.12010375	-17.5756402808669	30.6641221546523	0
0.12023182	-17.7100877421813	30.7795565518001	0
0.12055496	-17.8443380767093	30.8950832805184	0
0.12068162	-17.9783811421595	31.0106574775424	0
0.12091801	-18.1121868053056	31.1262451257813	0
0.12126083	-18.2457290773394	31.2418208950005	0
0.12130479	-18.3789824839748	31.3573442636706	0
0.12143378	-18.5119338893323	31.4727557708484	0
0.12173708	-18.6445786258809	31.5879803742275	0
0.12184622	-18.7769151478045	31.7029880609894	0
0.1220717	-18.9089710368478	31.8178254754865	0
0.12242258	-19.0408344724156	31.9326132896827	0
0.12245766	-19.17264232351	32.0475329341142	0
0.12259251	-19.3045182983442	32.1627668086026	0
0.12284945	-19.4365684660352	32.2784569991235	0
0.12293187	-19.5689087127232	32.3946590600206	0
0.12316163	-19.7016171722084	32.5113831555528	0
0.1234764	-19.8347484643776	32.6287020356746	0
0.1235308	-19.9683313330277	32.7467371706265	0
0.12365005	-20.1023607001668	32.8655924955216	0
0.12399661	-20.2368074753919	32.9853019466693	0
0.12412423	-20.3716381056178	33.1058315130714	0
0.12436753	-20.5068007872939	33.2271229243115	0
0.12471948	-20.6422609023248	33.3491449514849	0
0.12475467	-20.778039396753	33.4719098382635	0
0.12488871	-20.9142140408074	33.5954497529004	0
